<svg width="217" height="51" viewBox="0 0 217 51" fill="none" xmlns="http://www.w3.org/2000/svg">
<path d="M62.51 39.48C63.1322 38.5304 63.5479 37.4606 63.73 36.34C63.7781 36.0687 63.8115 35.7949 63.83 35.52C63.83 35.38 63.83 35.25 63.83 35.11V34.76V33.66L63.77 29.25L63.61 20.43L63.51 16.03V13.82C63.51 13.44 63.51 13.15 63.46 12.57C63.4202 12.0385 63.3264 11.5125 63.18 11C62.8691 9.90969 62.2878 8.9156 61.49 8.11C60.6299 7.23932 59.5171 6.66195 58.31 6.46C57.0775 6.26504 55.8153 6.49421 54.73 7.11C54.2374 7.38157 53.7833 7.71789 53.38 8.11L53.09 8.41L52.91 8.63L52.55 9.05C46.78 15.89 42.71 20.84 39.07 25.37L31.87 20.8L29.61 19.44C33.97 14.25 38.11 9.14 46.15 0C37.15 8.64 32.4 13.2 27.45 18.06C23.94 15.86 20.45 13.65 16.89 11.46L13.15 9.14L11.28 8L10.34 7.42L10.1 7.28L9.67 7C9.36634 6.84781 9.05221 6.71748 8.73 6.61C7.38513 6.17005 5.92948 6.20892 4.61 6.72C3.44396 7.17464 2.42402 7.93873 1.66 8.93C0.962622 9.83654 0.471218 10.8842 0.220001 12C0.0928081 12.5381 0.0191152 13.0874 0 13.64V14.87L0.139999 23.69C0.139999 26.63 0.240001 29.57 0.310001 32.51V34.71V35.81C0.316229 36.2779 0.346268 36.7452 0.400002 37.21C0.553148 38.2837 0.94621 39.3091 1.55 40.21C2.22424 41.1899 3.1645 41.9567 4.26 42.42C5.41727 42.8935 6.70167 42.957 7.9 42.6C8.46901 42.4252 9.00841 42.1656 9.5 41.83C9.72951 41.6734 9.94681 41.4995 10.15 41.31C10.26 41.22 10.35 41.12 10.45 41.03L10.58 40.89L10.67 40.79L13.67 37.55C18.95 31.81 22.58 27.69 25.67 24.1L28.61 26L35.26 30.18C30.81 35.79 26.33 41.55 19.19 50.43C27.27 42 32.4 36.77 37.44 31.51L43.52 35.33L51.01 40L52.88 41.16L53.35 41.45L53.58 41.6L53.7 41.67L53.91 41.79C54.5045 42.1373 55.1537 42.3808 55.83 42.51C56.5244 42.6349 57.2356 42.6349 57.93 42.51C58.5919 42.3987 59.2327 42.1863 59.83 41.88C60.9103 41.3172 61.8318 40.4919 62.51 39.48ZM10.76 34.7L7.61 37.83L7.52 37.93H7.45L7.34 38.03L7.13 38.18C7.00364 38.2469 6.8692 38.2973 6.73 38.33C6.50183 38.3756 6.2649 38.3403 6.06 38.23C5.78081 38.0459 5.55037 37.7969 5.38841 37.5044C5.22645 37.2118 5.13778 36.8843 5.13 36.55C5.13 36.33 5.13 36.17 5.13 35.74V34.64V32.44C5.19667 29.5 5.25667 26.56 5.31 23.62L5.61 14.85V13.85C5.61881 13.6638 5.64901 13.4793 5.7 13.3C5.78003 12.9788 5.93415 12.6809 6.15 12.43C6.29183 12.2516 6.47806 12.1137 6.69 12.03C6.76765 12.0025 6.85236 12.0025 6.93 12.03L13.76 16.42C16.86 18.42 19.9667 20.42 23.08 22.42L10.76 34.7ZM58.61 13.82V16L58.52 20.4L58.36 29.22L58.3 33.63V35C58.3046 35.0466 58.3046 35.0934 58.3 35.14C58.3 35.23 58.3 35.32 58.3 35.41C58.2379 35.7443 58.1049 36.0614 57.91 36.34C57.7671 36.5475 57.5746 36.7159 57.35 36.83C57.2599 36.8647 57.1601 36.8647 57.07 36.83L56.95 36.76L56.11 36.22L54.14 35L46.72 30.24L41.72 27.03C45.61 23 49.86 18.35 55.73 12L56.11 11.59L56.28 11.4L56.38 11.31C56.5072 11.2014 56.6484 11.1106 56.8 11.04C57.0143 10.9351 57.259 10.9103 57.49 10.97C57.7763 11.066 58.0314 11.2375 58.2285 11.4662C58.4256 11.695 58.5574 11.9727 58.61 12.27C58.6542 12.467 58.6776 12.6681 58.68 12.87L58.61 13.82Z" fill="#E4252C"/>
<path d="M93.69 34.35C93.6996 34.5232 93.6715 34.6964 93.6077 34.8576C93.5439 35.0189 93.4459 35.1645 93.3204 35.2842C93.195 35.404 93.045 35.4951 92.881 35.5513C92.7169 35.6076 92.5426 35.6276 92.37 35.61C92.066 35.6158 91.7672 35.5303 91.5123 35.3645C91.2573 35.1987 91.058 34.9603 90.94 34.68L84.41 20.39C83.48 17.83 82.09 16.24 78.97 16.24C75.49 16.24 73.83 18.24 73.83 21.11V39.02H77.74V21.31C77.7267 21.1311 77.7534 20.9514 77.818 20.7841C77.8827 20.6167 77.9838 20.4658 78.114 20.3423C78.2442 20.2189 78.4002 20.1259 78.5707 20.0701C78.7412 20.0144 78.922 19.9973 79.1 20.02C79.4118 20.0053 79.7194 20.096 79.9733 20.2774C80.2273 20.4588 80.4128 20.7203 80.5 21.02L87.03 35.27C87.96 37.83 89.38 39.42 92.5 39.42C95.95 39.42 97.64 37.42 97.64 34.51V16.64H93.69V34.35Z" fill="#151515"/>
<path d="M103.36 16.6401H99.45V39.0201H103.36V16.6401Z" fill="#151515"/>
<path d="M149.83 16.6401H144.96L137.76 24.8901L130.9 16.6401H124.69L117.5 24.8901L110.63 16.6401H105.83L114.92 27.3501L104.92 39.0201H109.76L117.39 30.1301L124.83 39.0201H130.04L137.66 30.1301L145.09 39.0201H149.83L140.22 27.6501L149.83 16.6401ZM127.41 36.4401L119.95 27.6501L127.81 18.6501L135.21 27.3801L127.41 36.4401Z" fill="#151515"/>
<path d="M163.74 25.8601H158.5C155.88 25.8601 155.18 24.5601 155.18 23.2001C155.18 21.6501 156.08 20.5501 158.1 20.5501H169.57V16.6401H158.23C153.23 16.6401 151.23 19.3601 151.23 23.0701C151.23 26.1901 152.62 29.5401 158.59 29.5401H163.83C166.58 29.5401 167.34 30.8601 167.34 32.3201C167.34 33.9501 166.34 35.1101 164.26 35.1101H151.67V39.0201H164.13C169.24 39.0201 171.26 36.2401 171.26 32.4601C171.26 29.2401 169.83 25.8601 163.74 25.8601Z" fill="#151515"/>
<path d="M186.3 16.6401H183.24C176.75 16.6401 173.13 20.3501 173.13 27.8801C173.13 35.4101 176.71 39.0201 183.24 39.0201H186.3C192.83 39.0201 196.41 35.3701 196.41 27.8801C196.41 20.3901 192.83 16.6401 186.3 16.6401ZM186.3 35.1101H183.24C178.9 35.1101 177.04 32.9901 177.04 27.8801C177.04 22.7701 178.93 20.5501 183.24 20.5501H186.3C190.61 20.5501 192.46 22.7401 192.46 27.8501C192.46 32.9601 190.61 35.1101 186.3 35.1101Z" fill="#151515"/>
<path d="M207.76 35.1101C204.24 35.1101 203.18 33.4201 203.18 31.2601V16.6401H199.27V31.2901C199.27 35.7701 201.59 39.0201 207.53 39.0201H216.45V35.1101H207.76Z" fill="#151515"/>
<path d="M103.36 11.01H99.45V14.92H103.36V11.01Z" fill="#E4252C"/>
</svg>
